<?xml version="1.0" encoding="utf-8"?>
<!-- Generator: Adobe Illustrator 16.0.0, SVG Export Plug-In . SVG Version: 6.00 Build 0)  -->
<!DOCTYPE svg PUBLIC "-//W3C//DTD SVG 1.1//EN" "http://www.w3.org/Graphics/SVG/1.1/DTD/svg11.dtd">
<svg version="1.1" id="Layer_1" xmlns="http://www.w3.org/2000/svg" xmlns:xlink="http://www.w3.org/1999/xlink" x="0px" y="0px"
	 width="283.46px" height="283.46px" viewBox="0 0 283.46 283.46" enable-background="new 0 0 283.46 283.46" xml:space="preserve">
<path fill-rule="evenodd" clip-rule="evenodd" fill="#FFFFFF" d="M32.947,132.31c1.273-4.777,3.594-8.367,3.997-13.015
	c-10.084,2.119-19.882,4.179-29.683,6.233c-0.106-0.378-0.211-0.76-0.322-1.134c14.657-5.382,29.313-10.758,44.274-16.251
	c0.625,4.123-2.845,6.811-2.919,10.945c11.575-2.366,22.93-4.692,34.289-7.018c0.11,0.326,0.228,0.655,0.337,0.981
	C66.485,119.385,50.047,125.719,32.947,132.31z"/>
<path fill-rule="evenodd" clip-rule="evenodd" fill="#FFFFFF" d="M65.187,73.183c-3.464,2.985-6.078,5.232-9.29,7.997
	c12.452,3.549,24.219,6.908,35.992,10.266c-0.067,0.317-0.137,0.644-0.202,0.967c-18.04-2.17-36.078-4.357-54.587-6.586
	c2.8-3.837,6.456-6.058,9.638-9.593C35.574,73.046,24.895,70,14.21,66.955c0.067-0.277,0.126-0.549,0.193-0.826
	C30.968,68.43,47.543,70.731,65.187,73.183z"/>
<path fill-rule="evenodd" clip-rule="evenodd" fill="#FFFFFF" d="M101.046,68.837C87.523,57.966,73.993,47.09,59.809,35.679
	c4.885-0.976,8.943-1.786,13.6-2.722C66.204,24.966,59.28,17.282,52.357,9.594c0.227-0.263,0.458-0.533,0.686-0.801
	C65.306,18.969,77.579,29.149,90.72,40.052c-4.53,0.684-8.01,1.208-12.169,1.837c8.01,8.991,15.637,17.552,23.267,26.111
	C101.562,68.284,101.305,68.561,101.046,68.837z"/>
<path fill-rule="evenodd" clip-rule="evenodd" fill="#FFFFFF" d="M272.897,73.57c-14.85,1.968-29.705,3.939-45.369,6.013
	c3.419,3,6.104,5.351,9.222,8.091c-11.624,3.444-22.633,6.712-33.646,9.98c0.095,0.346,0.193,0.695,0.274,1.037
	c17.275-2.115,34.541-4.225,52.667-6.451c-3.591-3.383-6.577-6.197-10.019-9.45c9.722-2.854,18.624-5.468,27.522-8.082
	c1.386-0.196,2.88-0.142,3.995-1.691C275.691,72.609,274.279,72.976,272.897,73.57z"/>
<path fill-rule="evenodd" clip-rule="evenodd" fill="#FFFFFF" d="M273.182,134.305c-13.812-5.821-27.613-11.651-42.172-17.794
	c1.436,4.326,2.556,7.708,3.86,11.652c-11.769-2.916-22.926-5.675-34.073-8.436c-0.09,0.354-0.185,0.695-0.279,1.037
	c15.962,6.924,31.914,13.843,48.677,21.108c-1.382-4.737-2.528-8.68-3.86-13.226c9.834,2.468,18.841,4.717,27.838,6.973
	c1.287,0.533,2.551,1.338,4.292,0.564C276.069,134.888,274.67,134.496,273.182,134.305z"/>
<path fill-rule="evenodd" clip-rule="evenodd" fill="#FFFFFF" d="M252.775,193.927c-9.264-11.949-18.526-23.893-28.091-36.215
	c-1.809,3.896-0.72,7.841-2.987,11.282c-8.084-7.594-16.042-15.07-23.996-22.55c-0.449-0.841-0.998-2.121-2.028-1.369
	c-0.675,0.492,0.319,1.424,0.972,1.947c10.271,13.667,20.546,27.335,30.987,41.218c2.276-4.314,1.534-8.795,3.567-12.938
	c6.991,6.56,13.729,12.889,20.469,19.214c0.621,0.977,1.152,2.065,2.601,2.078C254.367,195.303,253.63,194.583,252.775,193.927z"/>
<path fill-rule="evenodd" clip-rule="evenodd" fill="#FFFFFF" d="M172.896,270.792c1.192-12.462,2.34-24.923,3.5-37.394
	c4.287-46.346,8.62-92.694,12.794-139.058c0.252-2.785,1.197-4.105,3.645-5.322c2.853-1.419,6.388-2.2,7.072-6.476
	c3.59-22.613-8.152-43.257-30.195-51.137c-19.111-6.827-41.775,0.438-53.452,19.848c-3.378,5.619-5.378,10.786-0.409,16.436
	c1.291,1.469,1.466,3.066,0.49,5.034c-15.651,31.48-31.248,62.996-46.798,94.525c-10.885,22.075-21.677,44.187-32.528,66.289
	c-0.538,1.102-1.725,2.244-0.004,3.198c1.683,0.927,2.488-0.18,3.208-1.61c12.774-25.225,25.575-50.431,38.37-75.633
	c3.379-6.653,6.791-13.291,10.19-19.932c0.353,0.085,0.706,0.18,1.057,0.266c-0.688,5.041-0.72,10.065,0.182,15.023
	c0.292,1.61,0.09,2.893-0.515,4.409c-6.539,16.33-12.99,32.691-19.39,49.071c-0.391,1.013-1.691,2.511-0.065,3.329
	c1.696,0.859,2.926-0.359,3.585-1.935c1.354-3.248,2.623-6.531,3.972-9.78c4.875-11.759,9.769-23.519,15.001-36.106
	c6.091,13.19,15.179,21.963,28.533,26.093c13.323,4.125,25.791,2.195,38.153-5.138c-1.417,8.453-2.689,16.191-4.013,23.915
	c-1.417,8.323-2.906,16.632-4.301,24.959c-0.252,1.484-0.62,3.293,1.638,3.667c1.998,0.328,1.826-1.444,2.024-2.533
	c2.33-12.731,4.423-25.517,6.964-38.203c1.071-5.367,0.5-11.634,3.681-15.916c4.399-5.938,9.159-11.575,12.623-18.274
	c0.018,0.972,0.126,1.953,0.054,2.915c-1.358,17.384-2.717,34.767-4.103,52.149c-1.417,17.667-2.897,35.329-4.229,52.995
	c-0.108,1.386-1.111,3.905,1.673,3.905C173.651,274.373,172.77,272.15,172.896,270.792z M118.434,57.341
	c8.334-18.271,29.349-27.573,48.811-21.585c19.003,5.851,31.239,25.679,27.847,45.165c-0.651,3.748-0.801,3.934-6.267,6.935
	c3.298-7.351,0.77-13.541,0.378-19.808c-0.13-2.101-0.904-2.706-3.135-2.659c-2.223,0.049-2.483,0.765-2.511,2.683
	c-0.054,3.509-0.567,7.009-0.647,10.522c-0.041,1.716-0.414,3.284,1.376,5.066c1.898,1.874-0.54,5.292-3.571,5.378
	c-12.282,0.337-24.06-2.321-35.565-6.325c-6.782-2.362-13.438-5.065-19.43-9.128c-2.704-1.837-3.131-5.394-0.423-6.102
	c3.237-0.853,3.277-3.419,4.557-5.257c1.586-2.281,2.623-4.956,3.963-7.428c0.879-1.646,1.257-2.935-0.812-4.159
	c-1.948-1.158-2.956-0.472-4.134,1.053c-2.314,2.997-4.517,6.168-7.254,8.741c-2.125,1.993,0.387,5.664-3.048,6.681
	C116.007,63.999,116.907,60.69,118.434,57.341z M127.654,80.806c1.957-0.455,4.505,1.768,6.827,2.719
	c11.904,4.859,24.118,8.579,36.989,9.859c1.633,0.155,3.226,0.411,2.613,2.737c-0.071,0.276-0.135,0.556-0.18,0.825
	c-2.708,16.2-5.407,32.394-8.161,48.877c-4.517-2.074-8.241-4.944-12.758-6.076c-0.562-1.19-9.092-4.312-12.799-3.854
	c-0.196-1.178-1.062-1.601-2.081-1.788c-9.384-1.705-18.557-4.802-28.265-4.303c-2.468,0.12-2.886-0.524-1.91-2.856
	c5.479-13.096,10.731-26.297,16.299-39.355C125.241,85.217,125.061,81.404,127.654,80.806z M91.61,133.846
	c10.111-19.864,20.071-39.436,30.258-59.455c1.273,2.013,0.417,3.167,0,4.208c-5.475,13.712-11.013,27.397-16.542,41.087
	c-0.317,0.787-0.81,1.532-0.94,2.341C103.249,129.057,98.554,132.301,91.61,133.846z M124.042,185.86
	c-18.202-4.692-31.311-22.719-29.721-40.509c21.691,19.297,46.695,26.414,75.043,21.357
	C162.539,181.865,142.441,190.593,124.042,185.86z M163.412,165.278c-7.198,1.805-14.53,1.337-21.74-0.036
	c-14.054-2.672-27.625-6.657-39.099-15.781c-2.333-1.854-4.391-3.947-6.15-6.334c-2.854-3.853-2.083-6.361,2.553-7.756
	c6.471-1.943,13.094-1.516,19.644-0.695c6.006,0.751,29.316,7.976,31.494,8.496c5.803,2.209,11.408,4.884,16.24,8.809
	c2.713,2.195,6.748,4.328,6.001,8.322C171.551,164.613,166.777,164.433,163.412,165.278z M177.538,159.457
	c-2.375-3.374-3.752-6.829-6.536-9.321c-1.165-1.039-0.607-2.703-0.369-4.035c2.974-16.886,6.015-33.77,9.033-50.646
	c0.095-0.556,0.288-1.093,0.383-1.646c0.252-1.451,0.989-2.463,2.546-2.105c1.633,0.382,0.927,1.757,0.846,2.798
	c-0.882,11.341-1.786,22.689-2.663,34.028c-0.711,9.11-1.422,18.213-2.105,27.325C178.591,156.956,178.689,158.071,177.538,159.457z
	"/>
<path fill-rule="evenodd" clip-rule="evenodd" fill="#FFFFFF" d="M160.992,97.528c-8.242-2.418-16.45-4.951-24.633-7.562
	c-2.15-0.686-2.976-0.065-3.585,2.004c-2.281,7.693-4.638,15.361-7.149,22.984c-0.742,2.251-0.359,3.147,1.998,3.826
	c6.359,1.82,12.619,3.979,18.942,5.912c2.209,0.675,3.01,1.592,1.638,3.828c-2.67,4.371-5.524,8.725-10.091,11.123
	c-3.988,2.099-4.546,5.478-5.423,9.225c9.729-2.256,19.972-11.757,23.08-21.346c2.695-8.303,5.106-16.695,7.968-24.939
	C164.825,99.431,163.799,98.354,160.992,97.528z M152.48,113.318c-1.503,5.191-1.534,5.176-6.56,3.651
	c-1.208-0.374-2.438-0.7-3.659-1.048c-8.399-2.436-8.399-2.436-5.912-10.599c2.2-7.22,2.189-7.2,9.382-4.784
	c3.095,1.043,7.549,0.967,8.907,3.466C156.012,106.53,153.389,110.171,152.48,113.318z"/>
</svg>
